<svg viewBox="0 0 80 100" xmlns="http://www.w3.org/2000/svg">
<g>
<ellipse cx="40" cy="50" rx="40" ry="50" style="opacity:1;fill:green"/>
<ellipse cx="40" cy="49.333333333333336" rx="8" ry="16" style="opacity:1;fill:#005300"/>
<g>
<ellipse cx="56" cy="42.333333333333336" rx="8" ry="8" style="opacity:0.5;fill:black"/>
<ellipse cx="56" cy="41.333333333333336" rx="8" ry="8" style="opacity:1;fill:white"/>
<ellipse cx="57.6" cy="38.13333333333333" rx="4" ry="4" style="opacity:1;fill:#502f07"/>
<ellipse cx="57.6" cy="38.13333333333333" rx="2" ry="2" style="opacity:1;fill:black"/>
</g>
<g>
<ellipse cx="24" cy="42.333333333333336" rx="8" ry="8" style="opacity:0.5;fill:black"/>
<ellipse cx="24" cy="41.333333333333336" rx="8" ry="8" style="opacity:1;fill:white"/>
<ellipse cx="25.6" cy="38.13333333333333" rx="4" ry="4" style="opacity:1;fill:#502f07"/>
<ellipse cx="25.6" cy="38.13333333333333" rx="2" ry="2" style="opacity:1;fill:black"/>
</g>
<ellipse cx="4" cy="49.333333333333336" rx="4" ry="16" style="opacity:1;fill:#005300"/>
<ellipse cx="76" cy="49.333333333333336" rx="4" ry="16" style="opacity:1;fill:#005300"/>
<path d="M16,29.333334 L32,31.333334 L32,33.333332 L16,31.333334 z" fill="black" opacity="1"/>
<path d="M48,33.333332 L64,31.333334 L64,29.333334 L48,31.333334 z" fill="black" opacity="1"/>
<g>
<path d="M28,73.666664 c0,18.416666,24,18.416666,24,0 z" fill="black" opacity="1"/>
<g>
<rect fill="white" height="6.138888888888889" rx="0.4" width="16" x="32" y="73.66666666666667"/>
</g>
</g>
</g>
</svg>