<svg viewBox="0 0 64 128" xmlns="http://www.w3.org/2000/svg">
<g>
<ellipse cx="32" cy="68.92307692307693" rx="16" ry="19.692307692307693" style="opacity:1;fill:green"/>
<ellipse cx="32" cy="34.46153846153847" rx="16" ry="19.692307692307693" style="opacity:1;fill:pink"/>
<ellipse cx="19.692307692307693" cy="18.76923076923077" rx="19.692307692307693" ry="4" style="opacity:1;fill:pink"/>
<ellipse cx="4" cy="34.46153846153847" rx="4" ry="19.692307692307693" style="opacity:1;fill:pink"/>
<g>
<ellipse cx="32" cy="9.846153846153847" rx="8" ry="9.846153846153847" style="opacity:1;fill:yellow"/>
<ellipse cx="32" cy="9.764102564102565" rx="1.6" ry="3.2" style="opacity:1;fill:pink"/>
<g>
<ellipse cx="35.2" cy="9.164102564102565" rx="1.6" ry="1.6" style="opacity:0.5;fill:black"/>
<ellipse cx="35.2" cy="8.164102564102565" rx="1.6" ry="1.6" style="opacity:1;fill:white"/>
<ellipse cx="35.519999999999996" cy="7.524102564102565" rx="0.8" ry="0.8" style="opacity:1;fill:green"/>
<ellipse cx="35.519999999999996" cy="7.524102564102566" rx="0.4" ry="0.4" style="opacity:1;fill:black"/>
</g>
<g>
<ellipse cx="28.8" cy="9.164102564102565" rx="1.6" ry="1.6" style="opacity:0.5;fill:black"/>
<ellipse cx="28.8" cy="8.164102564102565" rx="1.6" ry="1.6" style="opacity:1;fill:white"/>
<ellipse cx="29.12" cy="7.524102564102565" rx="0.8" ry="0.8" style="opacity:1;fill:green"/>
<ellipse cx="29.119999999999997" cy="7.524102564102566" rx="0.4" ry="0.4" style="opacity:1;fill:black"/>
</g>
<path d="M27.2,6.5641026 L30.4,6.1641026 L30.4,5.7641025 L27.2,6.1641026 z" fill="orange" opacity="1"/>
<path d="M33.6,5.7641025 L36.8,6.1641026 L36.8,6.5641026 L33.6,6.1641026 z" fill="orange" opacity="1"/>
<g>
<path d="M29.6,14.605128 c0,3.651282,4.8,3.651282,4.8,0 z" fill="black" opacity="1"/>
<g>
<rect fill="white" height="1.217094017094017" rx="0.4" width="3.2" x="30.400000000000002" y="14.605128205128205"/>
</g>
</g>
</g>
</g>
</svg>